<?xml version="1.0" encoding="utf-8"?>
<!-- Generator: Adobe Illustrator 28.1.0, SVG Export Plug-In . SVG Version: 6.00 Build 0)  -->
<svg version="1.1" id="レイヤー_1" xmlns="http://www.w3.org/2000/svg" xmlns:xlink="http://www.w3.org/1999/xlink" x="0px"
	 y="0px" viewBox="0 0 687.54 113.38" style="enable-background:new 0 0 687.54 113.38;" xml:space="preserve">
<g>
	<g>
		<path d="M73.49,104.22l4.44-23.71c0.04-0.21-0.12-0.41-0.34-0.41H47.46c-7.03,0-12.32-6.38-11.03-13.29L48.86,0.41
			C48.9,0.2,48.74,0,48.52,0H15.94c-0.17,0-0.31,0.12-0.34,0.28L0.83,79.15c0,0-7.38,34.23,21.82,34.23h39.8
			C67.86,113.38,72.5,109.53,73.49,104.22z"/>
		<path d="M85.92,62.19L97.56,0H64.27l-9.16,48.91c-1.29,6.9,4,13.27,11.02,13.27H85.92z"/>
	</g>
	<g>
		<path d="M129.27,44.82l3.77,1.53c-0.39,2.44-0.9,4.94-1.53,7.51c-0.63,2.57-1.35,5.09-2.15,7.54c-0.81,2.45-1.68,4.74-2.62,6.86
			c-0.94,2.12-1.92,3.93-2.95,5.42c-0.2-0.67-0.49-1.43-0.88-2.3c-0.39-0.86-0.8-1.73-1.24-2.59c-0.43-0.86-0.84-1.61-1.24-2.24
			c0.94-1.22,1.86-2.68,2.77-4.39c0.9-1.71,1.75-3.54,2.53-5.51c0.79-1.96,1.48-3.97,2.09-6.01
			C128.44,48.61,128.92,46.67,129.27,44.82z M121.67,39.99H143v6.54h-21.32V39.99z M129.33,28.98h6.95v55.31h-6.95V28.98z
			 M135.93,47.82c0.35,0.43,0.87,1.16,1.56,2.18c0.69,1.02,1.42,2.14,2.21,3.36c0.79,1.22,1.51,2.36,2.18,3.42
			c0.67,1.06,1.12,1.81,1.35,2.24l-4.12,4.77c-0.32-0.9-0.74-1.96-1.27-3.18c-0.53-1.22-1.11-2.47-1.74-3.77
			c-0.63-1.3-1.23-2.51-1.8-3.65c-0.57-1.14-1.07-2.08-1.5-2.83L135.93,47.82z M154.48,57.01l5.48,1.65c-1.1,3.1-2.44,6.1-4.04,8.98
			c-1.59,2.89-3.37,5.53-5.33,7.92c-1.96,2.4-4.06,4.42-6.3,6.07c-0.35-0.55-0.82-1.17-1.38-1.86c-0.57-0.69-1.15-1.34-1.74-1.97
			c-0.59-0.63-1.14-1.16-1.65-1.59c2.16-1.3,4.19-2.96,6.1-5.01c1.9-2.04,3.62-4.29,5.15-6.74
			C152.3,62.01,153.54,59.53,154.48,57.01z M147.47,31.92l6.48,1.12c-0.59,3.77-1.43,7.41-2.53,10.93c-1.1,3.52-2.44,6.45-4.01,8.81
			c-0.39-0.35-0.93-0.76-1.62-1.21c-0.69-0.45-1.37-0.88-2.06-1.3c-0.69-0.41-1.31-0.76-1.86-1.03c1.45-2.08,2.64-4.67,3.56-7.78
			C146.36,38.36,147.04,35.18,147.47,31.92z M143.47,53.72h32.46v6.36h-32.46V53.72z M149.54,39.23h24.86v6.36h-24.86V39.23z
			 M156.43,28.98h6.89v55.31h-6.89V28.98z M165.5,57.31c0.82,2.32,1.86,4.62,3.12,6.92c1.26,2.3,2.66,4.45,4.21,6.45
			c1.55,2,3.11,3.67,4.68,5.01c-0.51,0.43-1.09,0.96-1.74,1.59c-0.65,0.63-1.27,1.3-1.86,2c-0.59,0.71-1.08,1.35-1.47,1.94
			c-1.65-1.69-3.21-3.74-4.68-6.16c-1.47-2.42-2.82-5.03-4.03-7.83c-1.22-2.81-2.26-5.62-3.12-8.45L165.5,57.31z"/>
		<path d="M181.17,39.05h53.01v6.89h-53.01V39.05z M181.17,75.57c2.36-0.39,5.13-0.85,8.33-1.38c3.2-0.53,6.6-1.11,10.19-1.74
			c3.59-0.63,7.18-1.28,10.75-1.94l0.47,6.3c-3.22,0.71-6.48,1.4-9.78,2.09c-3.3,0.69-6.48,1.35-9.54,2
			c-3.06,0.65-5.89,1.25-8.48,1.8L181.17,75.57z M183.41,52.66h25.51v6.83h-25.51V52.66z M192.3,56.54h7.07v19.97h-7.07V56.54z
			 M210.15,29.21h7.6c-0.12,4.87-0.05,9.62,0.21,14.25c0.25,4.63,0.68,8.97,1.27,13.02c0.59,4.04,1.3,7.6,2.12,10.66
			c0.82,3.06,1.74,5.46,2.74,7.19c1,1.73,2.07,2.59,3.21,2.59c0.67,0,1.17-0.84,1.5-2.53c0.33-1.69,0.58-4.4,0.74-8.13
			c0.82,0.82,1.82,1.63,2.97,2.41c1.16,0.79,2.23,1.36,3.21,1.71c-0.32,3.73-0.83,6.61-1.56,8.63c-0.73,2.02-1.69,3.42-2.89,4.18
			c-1.2,0.77-2.74,1.15-4.62,1.15c-2.12,0-4-0.73-5.65-2.18c-1.65-1.45-3.08-3.47-4.3-6.04c-1.22-2.57-2.24-5.61-3.06-9.1
			c-0.82-3.49-1.49-7.29-2-11.4c-0.51-4.1-0.88-8.39-1.12-12.87C210.27,38.28,210.15,33.77,210.15,29.21z M220.22,32.86l4.65-3.89
			c0.9,0.59,1.86,1.28,2.86,2.06c1,0.79,1.94,1.57,2.83,2.36c0.88,0.79,1.6,1.49,2.15,2.12l-5.01,4.3
			c-0.47-0.71-1.13-1.46-1.97-2.27c-0.84-0.8-1.75-1.62-2.71-2.44C222.06,34.28,221.12,33.53,220.22,32.86z"/>
		<path d="M266.46,35.87c-1.57,2.24-3.59,4.53-6.07,6.86c-2.47,2.34-5.22,4.55-8.25,6.63c-3.02,2.08-6.17,3.91-9.42,5.48
			c-0.24-0.59-0.6-1.25-1.09-1.97c-0.49-0.73-1-1.43-1.53-2.12c-0.53-0.69-1.05-1.29-1.56-1.8c3.38-1.49,6.62-3.35,9.72-5.57
			c3.1-2.22,5.88-4.57,8.34-7.07c2.45-2.49,4.41-4.9,5.86-7.22h7.42c1.57,2.16,3.32,4.2,5.24,6.13c1.92,1.92,3.97,3.68,6.13,5.27
			c2.16,1.59,4.39,3,6.69,4.24c2.3,1.24,4.62,2.29,6.98,3.15c-0.86,0.86-1.69,1.88-2.47,3.06c-0.79,1.18-1.49,2.3-2.12,3.36
			c-2.95-1.37-5.93-3.06-8.95-5.07c-3.02-2-5.84-4.16-8.45-6.48C270.3,40.44,268.15,38.15,266.46,35.87z M242.25,58.13h48.95v6.6
			h-48.95V58.13z M242.54,75.63c3.49-0.12,7.55-0.25,12.16-0.38c4.61-0.14,9.46-0.3,14.55-0.5c5.08-0.2,10.1-0.39,15.05-0.59
			l-0.24,6.48c-4.79,0.27-9.65,0.52-14.58,0.74c-4.93,0.22-9.61,0.43-14.05,0.65c-4.44,0.22-8.44,0.4-12.02,0.56L242.54,75.63z
			 M256.62,62.43l8.07,2.18c-0.9,1.85-1.86,3.72-2.86,5.63c-1,1.91-1.98,3.72-2.95,5.45c-0.96,1.73-1.88,3.26-2.74,4.59l-6.19-2.06
			c0.79-1.45,1.61-3.09,2.47-4.92c0.86-1.83,1.66-3.69,2.39-5.6C255.55,65.8,256.15,64.04,256.62,62.43z M252.73,46.76h27.63v6.48
			h-27.63V46.76z M271.29,68.5l6.19-3.3c1.77,1.53,3.51,3.18,5.24,4.95c1.73,1.77,3.32,3.55,4.77,5.33
			c1.45,1.79,2.63,3.43,3.53,4.92l-6.6,4c-0.79-1.49-1.89-3.17-3.33-5.04c-1.43-1.86-3-3.76-4.71-5.68
			C274.68,71.76,272.98,70.03,271.29,68.5z"/>
		<path d="M315.7,39.93h1.36l1.24-0.29l3.95,2.59c-1.45,3.85-3.36,7.51-5.71,10.99c-2.35,3.48-4.95,6.61-7.78,9.4
			c-2.83,2.79-5.71,5.1-8.66,6.95c-0.2-0.63-0.5-1.38-0.91-2.27c-0.41-0.88-0.82-1.73-1.24-2.53c-0.41-0.8-0.82-1.44-1.21-1.91
			c2.71-1.41,5.3-3.27,7.77-5.57c2.47-2.3,4.69-4.83,6.66-7.6c1.97-2.77,3.48-5.61,4.54-8.51V39.93z M298.97,39.93h19.26v6.36
			h-19.26V39.93z M307.4,29.03h7.01v13.84h-7.01V29.03z M307.4,60.02l7.01-8.36v32.69h-7.01V60.02z M313.64,53.66
			c0.55,0.35,1.3,0.93,2.27,1.74c0.96,0.8,1.99,1.69,3.09,2.65c1.1,0.96,2.1,1.85,3,2.65c0.9,0.81,1.55,1.38,1.95,1.74l-4.24,5.77
			c-0.59-0.75-1.31-1.62-2.15-2.62c-0.85-1-1.74-2.03-2.68-3.09c-0.94-1.06-1.86-2.06-2.77-3c-0.91-0.94-1.67-1.73-2.3-2.36
			L313.64,53.66z M320.12,75.69h33.52v6.95h-33.52V75.69z M322.53,47.24h29.69v6.83h-29.69V47.24z M333.72,29.57h7.3v49.48h-7.3
			V29.57z"/>
		<path d="M359.05,68.38c0.94,0.12,1.92,0.23,2.95,0.32c1.02,0.1,1.98,0.15,2.89,0.15h39.29c1.06,0,2.05-0.06,2.97-0.18
			c0.92-0.12,1.76-0.22,2.5-0.29v8.54c-0.83-0.12-1.77-0.2-2.83-0.24c-1.06-0.04-1.94-0.06-2.65-0.06h-39.29
			c-0.9,0-1.86,0.02-2.86,0.06c-1,0.04-1.99,0.12-2.97,0.24V68.38z M402.35,40.82c-0.12,0.39-0.24,0.87-0.35,1.44
			c-0.12,0.57-0.2,0.97-0.24,1.21c-0.16,1.18-0.37,2.71-0.65,4.59c-0.28,1.88-0.58,3.91-0.91,6.07c-0.33,2.16-0.68,4.31-1.03,6.45
			c-0.35,2.14-0.67,4.1-0.94,5.89c-0.28,1.79-0.51,3.23-0.71,4.33h-8.66c0.16-0.9,0.35-2.03,0.59-3.39
			c0.24-1.36,0.49-2.84,0.77-4.45c0.28-1.61,0.54-3.26,0.8-4.95c0.25-1.69,0.49-3.31,0.71-4.86c0.22-1.55,0.4-2.94,0.56-4.15
			c0.16-1.22,0.23-2.18,0.23-2.89c-0.9,0-2.06,0-3.47,0c-1.41,0-2.94,0-4.57,0c-1.63,0-3.25,0-4.86,0c-1.61,0-3.06,0-4.36,0
			s-2.32,0-3.06,0c-1.18,0-2.32,0.02-3.42,0.06c-1.1,0.04-2.18,0.1-3.24,0.18v-8.31c0.98,0.12,2.08,0.23,3.3,0.32
			c1.22,0.1,2.32,0.15,3.3,0.15c0.63,0,1.43,0,2.41,0c0.98,0,2.07,0,3.27,0s2.42,0,3.68,0c1.26,0,2.48,0,3.68,0c1.2,0,2.28,0,3.24,0
			s1.74,0,2.33,0c0.51,0,1.13-0.04,1.86-0.12c0.73-0.08,1.42-0.18,2.09-0.29c0.67-0.12,1.18-0.24,1.53-0.35L402.35,40.82z"/>
		<path d="M414.3,51.77c0.71,0.04,1.61,0.09,2.71,0.15c1.1,0.06,2.25,0.11,3.45,0.15c1.2,0.04,2.31,0.06,3.33,0.06
			c0.98,0,2.2,0,3.65,0c1.45,0,3.03,0,4.74,0c1.71,0,3.47,0,5.3,0c1.83,0,3.64,0,5.45,0c1.8,0,3.51,0,5.12,0c1.61,0,3.05,0,4.33,0
			c1.27,0,2.29,0,3.03,0c1.37,0,2.67-0.05,3.89-0.15c1.22-0.1,2.22-0.17,3-0.21v9.25c-0.67-0.04-1.67-0.1-3-0.18
			c-1.33-0.08-2.63-0.12-3.89-0.12c-0.75,0-1.77,0-3.06,0c-1.3,0-2.75,0-4.36,0s-3.31,0-5.1,0c-1.79,0-3.6,0-5.45,0s-3.62,0-5.33,0
			c-1.71,0-3.28,0-4.71,0c-1.43,0-2.64,0-3.62,0c-1.69,0-3.42,0.03-5.18,0.09s-3.2,0.13-4.3,0.21V51.77z"/>
		<path d="M484.69,57.9c-0.67,1.34-1.47,2.77-2.41,4.3c-0.94,1.53-1.95,3.06-3.03,4.59c-1.08,1.53-2.13,2.96-3.15,4.27
			c-1.02,1.32-1.94,2.41-2.77,3.27l-6.36-4.36c0.98-0.9,1.99-1.97,3.03-3.21c1.04-1.24,2.06-2.54,3.06-3.92
			c1-1.37,1.92-2.75,2.77-4.12c0.84-1.37,1.58-2.69,2.21-3.95L484.69,57.9z M469.67,41.94c0.9,0.12,1.85,0.23,2.83,0.32
			c0.98,0.1,1.94,0.15,2.89,0.15c0.47,0,1.42,0,2.86,0s3.15,0,5.15,0c2,0,4.15,0,6.45,0c2.3,0,4.61,0,6.95,0c2.33,0,4.51,0,6.54,0
			c2.02,0,3.78,0,5.27,0c1.49,0,2.53,0,3.12,0c0.82,0,1.8-0.04,2.92-0.12c1.12-0.08,2.09-0.18,2.91-0.29v7.72
			c-0.9-0.08-1.88-0.13-2.94-0.15c-1.06-0.02-2-0.03-2.83-0.03c-0.59,0-1.62,0-3.09,0c-1.47,0-3.22,0-5.24,0c-2.02,0-4.19,0-6.51,0
			c-2.32,0-4.63,0-6.95,0s-4.48,0-6.48,0s-3.72,0-5.15,0c-1.43,0-2.43,0-2.97,0c-0.86,0-1.82,0.02-2.86,0.06
			c-1.04,0.04-1.99,0.1-2.86,0.18V41.94z M498.53,32.57c-0.04,0.28-0.1,0.73-0.18,1.35c-0.08,0.63-0.16,1.29-0.23,1.97
			c-0.08,0.69-0.12,1.29-0.12,1.8c0,1.18,0,2.47,0,3.89s0,2.82,0,4.21c0,1.39,0,2.66,0,3.8c0,0.79,0,1.88,0,3.3c0,1.41,0,3,0,4.77
			s0,3.6,0,5.51c0,1.91,0,3.75,0,5.54c0,1.79,0,3.4,0,4.83c0,1.43,0,2.56,0,3.39c0,1.69-0.5,3.03-1.5,4.03c-1,1-2.54,1.5-4.62,1.5
			c-1.06,0-2.14-0.02-3.24-0.06c-1.1-0.04-2.18-0.1-3.24-0.18c-1.06-0.08-2.1-0.18-3.12-0.29l-0.71-7.3
			c1.26,0.24,2.48,0.41,3.68,0.53c1.2,0.12,2.15,0.18,2.86,0.18c0.78,0,1.33-0.17,1.65-0.5c0.31-0.33,0.49-0.87,0.53-1.62
			c0-0.35,0.01-1.12,0.03-2.3c0.02-1.18,0.03-2.57,0.03-4.18c0-1.61,0-3.32,0-5.12s0-3.53,0-5.18s0-3.08,0-4.3c0-1.22,0-2.06,0-2.53
			c0-0.71,0-1.78,0-3.21c0-1.43,0-2.95,0-4.56c0-1.61,0-2.98,0-4.12c0-0.79-0.06-1.72-0.18-2.8c-0.12-1.08-0.24-1.86-0.35-2.33
			H498.53z M510.02,54.6c0.75,0.94,1.58,2.06,2.5,3.36c0.92,1.3,1.86,2.68,2.8,4.15c0.94,1.47,1.83,2.91,2.65,4.3
			c0.82,1.39,1.53,2.62,2.12,3.68l-6.95,3.77c-0.63-1.26-1.35-2.61-2.15-4.06c-0.8-1.45-1.64-2.91-2.5-4.36
			c-0.86-1.45-1.72-2.82-2.56-4.09c-0.84-1.27-1.62-2.37-2.33-3.27L510.02,54.6z M509.66,31.39c0.75,1.1,1.55,2.4,2.42,3.89
			c0.86,1.49,1.57,2.77,2.12,3.83l-4.77,2c-0.59-1.18-1.28-2.48-2.06-3.92c-0.79-1.43-1.57-2.72-2.36-3.86L509.66,31.39z
			 M517.32,29.74c0.55,0.71,1.11,1.53,1.68,2.47c0.57,0.94,1.12,1.87,1.65,2.77c0.53,0.9,0.95,1.69,1.27,2.36l-4.65,2.06
			c-0.63-1.26-1.35-2.59-2.15-4c-0.8-1.41-1.62-2.67-2.44-3.77L517.32,29.74z"/>
		<path d="M573.81,43.58c-0.75,0.75-1.54,1.57-2.39,2.47c-0.84,0.9-1.58,1.71-2.21,2.42c-1.06,1.22-2.31,2.54-3.74,3.98
			c-1.43,1.43-2.99,2.88-4.65,4.33c-1.67,1.45-3.41,2.83-5.21,4.12c-2.12,1.49-4.5,2.92-7.13,4.27c-2.63,1.36-5.42,2.61-8.36,3.77
			c-2.95,1.16-5.95,2.19-9.01,3.09l-4.54-6.95c5.69-1.26,10.48-2.81,14.37-4.65c3.89-1.85,7.11-3.57,9.66-5.18
			c1.49-1.02,2.89-2.04,4.18-3.06c1.3-1.02,2.44-2.03,3.42-3.03c0.98-1,1.75-1.89,2.3-2.68c-0.51,0-1.34,0-2.47,0
			c-1.14,0-2.44,0-3.89,0c-1.45,0-2.96,0-4.54,0s-3.06,0-4.48,0c-1.41,0-2.65,0-3.71,0c-1.06,0-1.81,0-2.24,0
			c-0.67,0-1.49,0.01-2.47,0.03c-0.98,0.02-1.93,0.04-2.86,0.06c-0.92,0.02-1.7,0.07-2.33,0.15v-7.72c1.14,0.16,2.42,0.26,3.86,0.32
			c1.43,0.06,2.66,0.09,3.68,0.09c0.43,0,1.27,0,2.5,0c1.24,0,2.69,0,4.36,0s3.43,0,5.27,0c1.84,0,3.64,0,5.39,0
			c1.75,0,3.28,0,4.6,0c1.31,0,2.27,0,2.86,0c0.9,0,1.78-0.05,2.62-0.15c0.84-0.1,1.6-0.24,2.27-0.44L573.81,43.58z M556.84,56.42
			c0,1.06,0,2.39,0,3.98c0,1.59-0.01,3.27-0.03,5.04c-0.02,1.77-0.03,3.49-0.03,5.15c0,1.67,0,3.09,0,4.27
			c0,0.79,0.02,1.65,0.06,2.59c0.04,0.94,0.1,1.84,0.18,2.71c0.08,0.86,0.14,1.61,0.18,2.24h-8.48c0.08-0.55,0.16-1.27,0.24-2.15
			c0.08-0.88,0.14-1.81,0.18-2.77c0.04-0.96,0.06-1.84,0.06-2.62c0-1.1,0-2.36,0-3.77c0-1.41,0-2.84,0-4.27s0-2.78,0-4.04
			c0-1.26,0-2.34,0-3.24L556.84,56.42z M557.31,30.92c-0.08,0.71-0.16,1.56-0.24,2.56s-0.12,1.95-0.12,2.86c0,0.59,0,1.29,0,2.09
			c0,0.8,0,1.6,0,2.39c0,0.79,0,1.49,0,2.12h-7.72c0-0.63,0-1.32,0-2.06c0-0.75,0-1.51,0-2.3c0-0.79,0-1.53,0-2.24
			c0-0.94-0.03-1.9-0.09-2.89c-0.06-0.98-0.15-1.83-0.27-2.53H557.31z M574.63,72.62c-1.69-1.37-3.28-2.58-4.77-3.62
			c-1.49-1.04-2.98-2.02-4.48-2.95c-1.49-0.92-3.1-1.86-4.83-2.8l4.89-5.65c1.81,0.98,3.42,1.88,4.83,2.68
			c1.41,0.8,2.85,1.66,4.3,2.56c1.45,0.9,3.12,2,5.01,3.3L574.63,72.62z"/>
		<path d="M613.92,33.1c-0.71,1.02-1.39,2.12-2.06,3.3c-0.67,1.18-1.18,2.08-1.53,2.71c-1.34,2.36-2.97,4.8-4.92,7.33
			c-1.94,2.53-4.15,4.99-6.63,7.36c-2.47,2.38-5.1,4.55-7.89,6.51l-6.66-4.89c2.59-1.61,4.88-3.26,6.86-4.95
			c1.98-1.69,3.7-3.37,5.15-5.04c1.45-1.67,2.7-3.28,3.74-4.83c1.04-1.55,1.93-2.94,2.68-4.15c0.47-0.75,0.96-1.72,1.47-2.92
			c0.51-1.2,0.9-2.29,1.18-3.27L613.92,33.1z M633.12,42.41c-0.31,0.55-0.65,1.21-1,1.97c-0.35,0.77-0.67,1.52-0.94,2.27
			c-0.51,1.73-1.23,3.7-2.15,5.92c-0.92,2.22-2.06,4.52-3.42,6.89c-1.36,2.38-2.92,4.66-4.68,6.86c-2.83,3.38-6.12,6.44-9.87,9.19
			s-8.39,5.22-13.93,7.42l-6.95-6.24c4.01-1.18,7.46-2.53,10.37-4.06c2.91-1.53,5.44-3.17,7.6-4.92c2.16-1.75,4.08-3.6,5.77-5.57
			c1.38-1.53,2.63-3.27,3.77-5.21c1.14-1.94,2.12-3.88,2.95-5.8c0.82-1.92,1.37-3.61,1.65-5.07h-19.85l2.71-6.66
			c0.55,0,1.4,0,2.56,0c1.16,0,2.47,0,3.95,0s2.92,0,4.36,0c1.43,0,2.69,0,3.77,0c1.08,0,1.82,0,2.21,0c0.9,0,1.82-0.06,2.74-0.18
			c0.92-0.12,1.72-0.29,2.38-0.53L633.12,42.41z"/>
		<path d="M682.42,39.11c-0.24,0.35-0.58,0.9-1.03,1.65c-0.45,0.75-0.8,1.43-1.03,2.06c-0.82,1.85-1.84,3.91-3.03,6.18
			c-1.2,2.28-2.55,4.57-4.07,6.86c-1.51,2.3-3.11,4.45-4.8,6.45c-2.2,2.47-4.62,4.92-7.28,7.33c-2.65,2.41-5.44,4.63-8.36,6.66
			c-2.93,2.02-5.92,3.76-8.98,5.21l-6.07-6.36c3.18-1.22,6.26-2.75,9.25-4.59c2.98-1.85,5.75-3.85,8.31-6.01
			c2.55-2.16,4.75-4.26,6.6-6.3c1.3-1.49,2.52-3.08,3.68-4.77c1.16-1.69,2.19-3.37,3.09-5.04c0.9-1.67,1.57-3.21,2-4.62
			c-0.39,0-1.1,0-2.12,0c-1.02,0-2.21,0-3.56,0c-1.36,0-2.78,0-4.27,0s-2.91,0-4.27,0c-1.36,0-2.54,0-3.56,0c-1.02,0-1.75,0-2.18,0
			c-0.83,0-1.69,0.03-2.59,0.09c-0.9,0.06-1.76,0.12-2.56,0.18s-1.42,0.11-1.86,0.15v-8.36c0.59,0.04,1.32,0.1,2.18,0.18
			c0.86,0.08,1.74,0.14,2.62,0.18c0.88,0.04,1.62,0.06,2.21,0.06c0.51,0,1.31,0,2.41,0c1.1,0,2.36,0,3.77,0c1.41,0,2.88,0,4.39,0
			s2.96,0,4.36,0c1.39,0,2.6,0,3.62,0c1.02,0,1.77,0,2.24,0c1.3,0,2.48-0.08,3.56-0.24c1.08-0.16,1.91-0.33,2.5-0.53L682.42,39.11z
			 M669.22,57.43c1.53,1.22,3.16,2.63,4.89,4.24c1.73,1.61,3.43,3.28,5.12,5.01c1.69,1.73,3.25,3.39,4.68,4.98
			c1.43,1.59,2.64,2.98,3.62,4.15l-6.72,5.83c-1.45-2-3.11-4.08-4.98-6.24c-1.87-2.16-3.83-4.31-5.89-6.45
			c-2.06-2.14-4.15-4.17-6.27-6.1L669.22,57.43z"/>
	</g>
</g>
</svg>
