<?xml version="1.0" encoding="utf-8"?>
<!-- Generator: Adobe Illustrator 28.1.0, SVG Export Plug-In . SVG Version: 6.00 Build 0)  -->
<svg version="1.1" id="レイヤー_1" xmlns="http://www.w3.org/2000/svg" xmlns:xlink="http://www.w3.org/1999/xlink" x="0px"
	 y="0px" viewBox="0 0 427.07 95.65" style="enable-background:new 0 0 427.07 95.65;" xml:space="preserve">
<g>
	<path d="M62,87.92l3.75-20.01c0.03-0.18-0.1-0.35-0.29-0.35H40.04c-5.93,0-10.4-5.38-9.31-11.21L41.22,0.35
		C41.26,0.17,41.12,0,40.94,0H13.45c-0.14,0-0.26,0.1-0.29,0.24L0.7,66.78c0,0-6.22,28.87,18.41,28.87h33.58
		C57.25,95.65,61.16,92.4,62,87.92z"/>
	<path d="M72.48,52.46L82.3,0H54.22l-7.73,41.26c-1.09,5.82,3.38,11.2,9.3,11.2H72.48z"/>
</g>
<g>
	<g>
		<path d="M127.54,68.18c2.13,0,4.09-0.35,5.9-1.06s3.4-1.7,4.78-2.98c1.38-1.28,2.55-2.83,3.5-4.66s1.64-3.87,2.05-6.13l6.55-35.4
			h11l-6.55,35.4c-0.65,3.52-1.82,6.77-3.5,9.75c-1.68,2.98-3.78,5.56-6.29,7.73c-2.51,2.17-5.39,3.86-8.64,5.07
			s-6.77,1.82-10.56,1.82c-3.82,0-7.12-0.61-9.92-1.82c-2.8-1.21-5.06-2.9-6.77-5.07c-1.71-2.17-2.86-4.74-3.43-7.73
			c-0.58-2.98-0.54-6.23,0.11-9.75l6.55-35.4h11l-6.54,35.36c-0.42,2.26-0.49,4.31-0.22,6.13c0.28,1.83,0.87,3.39,1.79,4.68
			c0.92,1.3,2.15,2.3,3.7,3.01S125.41,68.18,127.54,68.18z"/>
		<path d="M166.24,48.15h21.18l-1.56,8.42h-21.18L166.24,48.15z"/>
		<path d="M224.61,17.94c3.87,0,7.11,0.37,9.73,1.1c2.62,0.74,4.68,1.79,6.18,3.15c1.51,1.36,2.49,3.01,2.95,4.95
			c0.46,1.94,0.46,4.12,0.02,6.54c-0.26,1.39-0.71,2.72-1.35,3.99s-1.5,2.45-2.56,3.56c-1.06,1.1-2.34,2.11-3.83,3
			c-1.49,0.9-3.2,1.66-5.15,2.29c7.78,1.83,11.03,6.21,9.75,13.16c-0.46,2.51-1.37,4.83-2.72,6.95c-1.35,2.13-3.08,3.96-5.19,5.5
			c-2.11,1.54-4.58,2.75-7.42,3.62c-2.83,0.87-5.97,1.31-9.4,1.31h-22.32l10.94-59.11H224.61z M217.02,68.47
			c2.04,0,3.81-0.25,5.29-0.74s2.71-1.14,3.69-1.96c0.98-0.82,1.76-1.77,2.33-2.86c0.57-1.09,0.97-2.25,1.2-3.47
			c0.24-1.28,0.25-2.43,0.03-3.46c-0.22-1.02-0.7-1.89-1.44-2.62c-0.74-0.72-1.76-1.27-3.07-1.66c-1.3-0.38-2.93-0.57-4.86-0.57
			H209.1l-3.21,17.33H217.02z M213.67,26.44l-3.16,17.09h8.75c3.76,0,6.73-0.68,8.9-2.04c2.17-1.36,3.54-3.53,4.09-6.5
			c0.57-3.08,0.1-5.27-1.4-6.58c-1.5-1.31-4.11-1.96-7.81-1.96H213.67z"/>
		<path d="M272,34.46c3.11,0,5.84,0.5,8.2,1.51c2.36,1.01,4.28,2.44,5.75,4.29c1.47,1.85,2.45,4.12,2.93,6.79
			c0.49,2.67,0.43,5.66-0.18,8.95c-0.62,3.33-1.66,6.32-3.14,9c-1.48,2.67-3.29,4.95-5.45,6.83c-2.16,1.88-4.61,3.33-7.34,4.33
			c-2.74,1.01-5.66,1.51-8.76,1.51c-3.13,0-5.89-0.51-8.26-1.51c-2.38-1.01-4.3-2.45-5.76-4.33c-1.47-1.88-2.45-4.15-2.95-6.83
			c-0.5-2.67-0.44-5.67,0.17-9c0.61-3.3,1.66-6.28,3.15-8.95c1.49-2.67,3.31-4.93,5.47-6.79c2.16-1.85,4.61-3.28,7.36-4.29
			C265.92,34.96,268.86,34.46,272,34.46z M265.44,69.9c3.49,0,6.29-1.17,8.4-3.52c2.11-2.34,3.58-5.78,4.42-10.3
			c0.84-4.52,0.64-7.97-0.6-10.34c-1.24-2.37-3.6-3.56-7.09-3.56c-3.54,0-6.39,1.19-8.53,3.58s-3.63,5.83-4.46,10.32
			c-0.83,4.5-0.61,7.92,0.65,10.28S261.9,69.9,265.44,69.9z"/>
		<path d="M308.78,40.26c1-0.85,2.04-1.63,3.11-2.35s2.18-1.34,3.32-1.84c1.14-0.5,2.34-0.9,3.59-1.19s2.59-0.43,4-0.43
			c2.29,0,4.25,0.39,5.88,1.16c1.63,0.78,2.9,1.87,3.83,3.27c0.93,1.4,1.51,3.08,1.77,5.03s0.16,4.1-0.27,6.44l-4.94,26.7h-10.1
			l4.94-26.7c0.47-2.56,0.25-4.54-0.66-5.95c-0.91-1.4-2.57-2.11-4.97-2.11c-1.75,0-3.45,0.4-5.13,1.19
			c-1.67,0.79-3.32,1.87-4.93,3.23l-5.61,30.33h-10.1l7.76-41.94h6.17c1.31,0,2.05,0.61,2.23,1.84L308.78,40.26z"/>
		<path d="M350.06,57.35c-0.23,2.15-0.2,4.01,0.11,5.58c0.31,1.57,0.86,2.86,1.65,3.88c0.79,1.02,1.82,1.79,3.07,2.29
			c1.25,0.51,2.7,0.76,4.34,0.76c1.63,0,3.08-0.19,4.34-0.57c1.26-0.38,2.37-0.8,3.34-1.27c0.97-0.46,1.83-0.88,2.56-1.27
			c0.74-0.38,1.42-0.57,2.05-0.57c0.84,0,1.41,0.31,1.71,0.94l2.22,3.68c-1.36,1.31-2.82,2.4-4.37,3.29
			c-1.55,0.88-3.14,1.59-4.75,2.12c-1.61,0.53-3.22,0.91-4.83,1.12c-1.61,0.22-3.15,0.33-4.62,0.33c-2.92,0-5.54-0.49-7.87-1.45
			c-2.33-0.97-4.24-2.4-5.75-4.29s-2.53-4.24-3.07-7.03c-0.55-2.79-0.48-6.03,0.2-9.71c0.53-2.86,1.49-5.55,2.88-8.07
			c1.39-2.52,3.13-4.71,5.2-6.58c2.08-1.87,4.46-3.34,7.16-4.44c2.69-1.09,5.61-1.64,8.74-1.64c2.64,0,5.01,0.42,7.08,1.27
			c2.08,0.84,3.77,2.08,5.08,3.7c1.31,1.62,2.2,3.61,2.68,5.97s0.43,5.05-0.12,8.07c-0.28,1.53-0.64,2.55-1.06,3.09
			c-0.43,0.53-1.1,0.8-2.03,0.8H350.06z M370.44,51.26c0.24-1.31,0.29-2.54,0.13-3.7c-0.15-1.16-0.52-2.17-1.09-3.05
			c-0.57-0.87-1.38-1.56-2.42-2.06c-1.04-0.5-2.31-0.76-3.81-0.76c-2.92,0-5.37,0.83-7.35,2.49c-1.98,1.66-3.49,4.02-4.52,7.07
			H370.44z"/>
		<path d="M419.75,77.05h-9.73c-0.74,0-1.29-0.19-1.67-0.57c-0.38-0.38-0.67-0.82-0.88-1.31l-6.17-14.6
			c-0.22,0.46-0.46,0.9-0.71,1.31c-0.25,0.41-0.52,0.79-0.8,1.14l-10.1,12.14c-0.39,0.46-0.83,0.89-1.34,1.29s-1.09,0.59-1.75,0.59
			h-9.04l18.39-21.63L385.9,35.11h9.73c0.74,0,1.26,0.1,1.58,0.31c0.32,0.2,0.57,0.54,0.76,1l6.2,13.98
			c0.47-0.93,1.06-1.84,1.77-2.74l9.12-11.04c0.79-1.01,1.66-1.51,2.61-1.51h9.28l-17.45,19.87L419.75,77.05z"/>
	</g>
</g>
</svg>
